<?xml version="1.0" encoding="utf-8"?>
<!-- Generator: Adobe Illustrator 18.1.0, SVG Export Plug-In . SVG Version: 6.00 Build 0)  -->
<svg version="1.1" id="Layer_1" xmlns="http://www.w3.org/2000/svg" xmlns:xlink="http://www.w3.org/1999/xlink" x="0px" y="0px"
	 viewBox="0 0 500 500" enable-background="new 0 0 500 500" xml:space="preserve">
<g>
	<path fill="#010101" d="M250,0C111.9,0,0,111.9,0,250s111.9,250,250,250s250-111.9,250-250S388.1,0,250,0z M353.9,353.9H146.1
		c-13.3,0-24-10.8-24-24c0-13.3,10.8-24,24-24h208c13.3,0,24,10.8,24,24C378.1,343.2,367.2,353.9,353.9,353.9z M353.9,274H146.1
		c-13.3,0-24-10.8-24-24s10.8-24,24-24h208c13.3,0,24,10.8,24,24S367.2,274,353.9,274z M353.9,194H146.1c-13.3,0-24-10.8-24-24
		c0-13.3,10.8-24,24-24h208c13.3,0,24,10.8,24,24C378.1,183.2,367.2,194,353.9,194z"/>
</g>
</svg>
